{"title":"DISNEYS-BEDKNOBS&amp;BROOMSTICKS IN H.264 BY STIG","uid":5039004,"size":948152460,"categoryP":"video","categoryS":"movies","magnet":"?xt=urn:btih:a4acba9909d4896cf29d5533c65b7584223f5ec4&amp;dn=DISNEYS-BEDKNOBS%26BROOMSTICKS+IN+H.264+BY+STIG&amp;tr=udp%3A%2F%2Ftracker.openbittorrent.com%3A80&amp;tr=udp%3A%2F%2Fopen.demonii.com%3A1337&amp;tr=udp%3A%2F%2Ftracker.coppersurfer.tk%3A6969&amp;tr=udp%3A%2F%2Fexodus.desync.com%3A6969","seeders":0,"leechers":0,"uploader":"alanwatson","files":-1,"time":1249279314,"description":"An Academy Award winner for Best Visual Effects, 'Bedknobs And Broomsticks' features a spellbinding mix of live action and animation that makes it one of Disney's most delightfully endearing Classics!\n\nScreen legend Angela Landsbury gives a bewitching performance as an amateur witch who reluctantly takes in three precocious orphans. The children soon find themselves swept aboard a flying bed, it's magic brass bedknob their ticket to on fantastic adventure after another - including a visit to an enchanted island inhabited by wondrous animated animal characters, and the most hilarious soccer match in motion picture history. Now it's your turn to take a ride on 'Bedknobs And Broomsticks', a fun-filled flight of fantasy, music and Disney magic for all ages!\n\nFormat : MPEG-4\nFormat profile : Base Media / Version 2\nCodec ID : mp42\nFile size : 899 MiB\nDuration : 2h 13mn\nOverall bit rate : 941 Kbps\nEncoded date : UTC 2009-08-02 03:14:58\nTagged date : UTC 2009-08-02 10:14:14\nWriting application : HandBrake 0.9.3 2008112300\n\nVideo\nID : 1\nFormat : AVC\nFormat/Info : Advanced Video Codec\nFormat profile : &lt;a class=&quot;__cf_email__&quot; href=&quot;/cdn-cgi/l/email-protection&quot; data-cfemail=&quot;99d4f8f0f7d9d5adb7a9&quot;&gt;[email&amp;#160;protected]&lt;/a&gt;&lt;script cf-hash='f9e31' type=&quot;text/javascript&quot;&gt;\n/* &lt;![CDATA[ */!function(){try{var t=&quot;currentScript&quot;in document?document.currentScript:function(){for(var t=document.getElementsByTagName(&quot;script&quot;),e=t.length;e--;)if(t[e].getAttribute(&quot;cf-hash&quot;))return t[e]}();if(t&amp;&amp;t.previousSibling){var e,r,n,i,c=t.previousSibling,a=c.getAttribute(&quot;data-cfemail&quot;);if(a){for(e=&quot;&quot;,r=parseInt(a.substr(0,2),16),n=2;a.length-n;n+=2)i=parseInt(a.substr(n,2),16)^r,e+=String.fromCharCode(i);e=document.createTextNode(e),c.parentNode.replaceChild(e,c)}}}catch(u){}}();/* ]]&gt; */&lt;/script&gt;\nFormat settings, CABAC : Yes\nFormat settings, ReFrames : 3 frames\nCodec ID : avc1\nCodec ID/Info : Advanced Video Coding\nDuration : 2h 13mn\nBit rate mode : Variable\nBit rate : 777 Kbps\nWidth : 676 pixels\nHeight : 576 pixels\nDisplay aspect ratio : 1.669\nFrame rate mode : Variable\nFrame rate : 25.000 fps\nMinimum frame rate : 12.500 fps\nMaximum frame rate : 57.143 fps\nResolution : 24 bits\nColorimetry : 4:2:0\nScan type : Progressive\nBits/(Pixel*Frame) : 0.080\nStream size : 743 MiB (83%)\nWriting library : x264 core 65\n\n\nAudio\nID : 2\nFormat : AAC\nFormat/Info : Advanced Audio Codec\nFormat version : Version 4\nFormat profile : LC\nFormat settings, SBR : No\nCodec ID : 40\nDuration : 2h 13mn\nBit rate mode : Variable\nBit rate : 160 Kbps\nMaximum bit rate : 221 Kbps\nChannel(s) : 2 channels\nChannel positions : L R\nSampling rate : 48.0 KHz\nResolution : 16 bits\nStream size : 153 MiB (17%)\nLanguage : English\nEncoded date : UTC 2009-08-02 03:14:58\nTagged date : UTC 2009-08-02 10:14:00\n","torrent":{"xt":"urn:btih:a4acba9909d4896cf29d5533c65b7584223f5ec4","amp;dn":"DISNEYS-BEDKNOBS%26BROOMSTICKS+IN+H.264+BY+STIG","amp;tr":["udp%3A%2F%2Ftracker.openbittorrent.com%3A80","udp%3A%2F%2Fopen.demonii.com%3A1337","udp%3A%2F%2Ftracker.coppersurfer.tk%3A6969","udp%3A%2F%2Fexodus.desync.com%3A6969"],"infoHash":"a4acba9909d4896cf29d5533c65b7584223f5ec4","infoHashBuffer":{"type":"Buffer","data":[164,172,186,153,9,212,137,108,242,157,85,51,198,91,117,132,34,63,94,196]},"announce":[],"urlList":[]}}